<svg xmlns="http://www.w3.org/2000/svg" viewBox="0 0 48 32"><path fill="#CC291F" d="M35 8l1.2-.4c.2-.1.4 0 .5.1.2.2.2.4 0 .6l-.4.7L35 8z"/><path d="M35 8l1.2-.4c.2-.1.4 0 .5.1.2.2.2.4 0 .6l-.4.7" opacity=".39"/><path fill="#262626" d="M30 26l14-7L18 6 4 13z" opacity=".3"/><path fill="#2D3134" d="M30.5 21.8L42 16.3 17 3.7 5.5 9.2z"/><path fill="#2D3134" d="M26.1 16.1c-.8-.4-1.5-.4-2-.2l-1.1.6c-.6.3-.9.8-.9 1.7 0 1.6 1.3 3.6 2.9 4.4.8.4 1.5.4 2.1.2 0 0 1.1-.6 1.2-.7.5-.3.8-.8.8-1.6-.1-1.6-1.4-3.5-3-4.4z"/><path d="M27 22.8c.2-.1 1.1-.6 1.2-.6.5-.3.8-.8.8-1.6 0-.7-.2-1.4-.6-2l-1.1.6c.4.7.6 1.4.6 2 0 .8-.3 1.3-.9 1.6z" opacity=".39"/><path fill="#C4C6CC" d="M24.9 17.5c-1.2-.6-2.2-.1-2.2 1.1 0 1.2 1 2.7 2.2 3.3s2.2.1 2.2-1.1c.1-1.2-.9-2.7-2.2-3.3zm1.5 1.5c.2.3.3.6.1.7-.1.1-.8 0-1.1-.1 0-.1-.1-.1-.1-.2.1-.3.3-.8.5-.9.1-.1.4.1.6.5zm-1.5-1.3c.3.2.6.4.6.6 0 .2-.3.7-.5.9 0 0-.1 0-.1-.1h-.1c-.2-.4-.5-1.1-.5-1.3.1-.3.3-.3.6-.1zm-1.4-.2c.2-.1.5-.1.7.2.1.2.4 1 .5 1.3-.1 0-.1 0-.1.1-.3-.3-1-.8-1.1-1-.3-.3-.2-.5 0-.6zm-.6 1.2c0-.3.1-.5.4-.4.2.1.8.7 1.1 1v.2c-.3 0-.9 0-1.1-.1-.3-.1-.4-.4-.4-.7zm.6 1.7c-.2-.3-.3-.6-.1-.7.1-.1.8 0 1.1.1 0 .1.1.1.1.2-.1.3-.3.8-.5.9-.1.1-.4-.2-.6-.5zm1.4 1.3c-.3-.2-.6-.4-.6-.6 0-.2.3-.7.5-.9 0 0 .1 0 .1.1h.1c.2.4.5 1.1.5 1.3 0 .3-.2.3-.6.1zm1.5.1c-.2.1-.5.1-.7-.2-.1-.2-.4-1-.5-1.3.1 0 .1 0 .1-.1.3.3 1 .8 1.1 1 .3.3.2.5 0 .6zm.2-.7c-.2-.1-.8-.7-1.1-1V20v-.1c.3 0 .9 0 1.1.1.3.1.4.4.4.7 0 .3-.1.5-.4.4z"/><path d="M25.1 21.8c-1.2-.6-2.2-2.1-2.2-3.3 0-.6.2-1 .6-1.2-.5.2-.8.6-.8 1.3 0 1.2 1 2.7 2.2 3.3.6.3 1.2.3 1.6.1-.4.1-.8.1-1.4-.2z" opacity=".06"/><path d="M27.9 21.2c0 1.6-1.3 2.3-2.9 1.5-1.6-.8-2.9-2.8-2.9-4.4s1.3-2.3 2.9-1.5c1.6.7 2.9 2.7 2.9 4.4z" opacity=".06"/><path fill="#2D3134" d="M11.1 8.7c-.8-.4-1.5-.4-2-.2l-1.2.6c-.5.2-.9.8-.9 1.6 0 1.6 1.3 3.6 2.9 4.4.8.4 1.5.4 2.1.2 0 0 1.1-.6 1.2-.7.5-.3.8-.8.8-1.6 0-1.5-1.3-3.5-2.9-4.3z"/><path d="M12 15.3c.2-.1 1.1-.6 1.2-.6.5-.3.8-.8.8-1.6 0-.7-.2-1.4-.6-2l-1.1.6c.4.7.6 1.4.6 2 0 .8-.3 1.4-.9 1.6z" opacity=".39"/><path fill="#C4C6CC" d="M9.9 10c-1.2-.6-2.2-.1-2.2 1.1 0 1.2 1 2.7 2.2 3.3s2.2.1 2.2-1.1c.1-1.2-.9-2.7-2.2-3.3zm1.5 1.5c.2.3.3.6.1.7-.1.1-.8 0-1.1-.1 0-.1-.1-.1-.1-.2.1-.3.3-.8.5-.9.1-.1.4.2.6.5zm-1.5-1.3c.3.2.6.4.6.6 0 .2-.3.7-.5.9 0 0-.1 0-.1-.1h-.1c-.2-.4-.5-1.1-.5-1.3.1-.3.3-.3.6-.1zm-1.4-.1c.2-.1.5-.1.7.2.1.2.4 1 .5 1.3-.1 0-.1 0-.1.1-.3-.3-1-.8-1.1-1-.3-.3-.2-.5 0-.6zm-.6 1.1c0-.3.1-.5.4-.4.2.1.8.7 1.1 1v.2c-.3 0-.9 0-1.1-.1-.3-.1-.4-.4-.4-.7zm.6 1.7c-.2-.3-.3-.6-.1-.7.1-.1.8 0 1.1.1 0 .1.1.1.1.2-.1.3-.3.8-.5.9-.1.1-.4-.2-.6-.5zm1.4 1.3c-.3-.2-.6-.4-.6-.6 0-.2.3-.7.5-.9 0 0 .1 0 .1.1h.1c.2.4.5 1.1.5 1.3 0 .3-.2.3-.6.1zm1.5.2c-.2.1-.5.1-.7-.2-.1-.2-.4-1-.5-1.3.1 0 .1 0 .1-.1.3.3 1 .8 1.1 1 .3.3.2.5 0 .6zm.2-.8c-.2-.1-.8-.7-1.1-1v-.1-.1c.3 0 .9 0 1.1.1.3.1.4.4.4.7s-.1.5-.4.4z"/><path d="M10.1 14.3c-1.2-.6-2.2-2.1-2.2-3.3 0-.6.2-1 .6-1.2-.5.2-.8.6-.8 1.3 0 1.2 1 2.7 2.2 3.3.6.3 1.2.3 1.6.1-.4.2-.8.1-1.4-.2z" opacity=".06"/><path d="M12.9 13.7c0 1.6-1.3 2.3-2.9 1.5s-3-2.8-3-4.5 1.3-2.3 2.9-1.5c1.7.9 3 2.9 3 4.5z" opacity=".06"/><path fill="#CC291F" d="M37.3 10L32 4l-8-4-5.8.5-3.8-.3-9 4.5v4l1.1.7c.5-1.1 1.9-1.5 3.4-.7 1.8.9 3.2 2.9 3.5 4.7l8 4.1c.2-1.7 1.7-2.3 3.5-1.4 1.8.9 3.3 3 3.5 4.9l4 1.7L43 17.5v-4L37.3 10z"/><path fill="#39C" d="M22.8 9.2L32 4.5l4.6 5.3-9.2 4.6z"/><path fill="#2D3134" d="M36.3 9.5l-9.2 4.6.3.3 9.2-4.6z"/><path d="M24.8 8.2L32 4.5l4.6 5.3z" opacity=".15"/><path fill="#39C" d="M19 .8l3-.3-8.1 4-3.1.3z"/><path fill="#FFF" d="M18.9 2l-5 2.5-3.1.3z" opacity=".39"/><path fill="#FFF" d="M43 14v1.8l-1.5.7v-.8c0-.3.1-.6.3-.9.2-.2.4-.4.6-.5l.6-.3zM32.5 19.3l1.1-.5c.2-.1.5-.1.7.1.1.1.2.3.2.4v.7l-2 1v-1.7z"/><path fill="#FC0" d="M32.5 19.3L32 19v1.8l.5.2z"/><ellipse cx="33.7" cy="19.7" fill="#2D3134" opacity=".39" rx=".6" ry=".4" transform="scale(-1) rotate(-50.856 -41.467 70.838)"/><ellipse cx="33.3" cy="19.7" fill="#2D3134" opacity=".39" rx=".6" ry=".4" transform="scale(-1) rotate(-50.856 -41.467 70.038)"/><ellipse cx="42.4" cy="15.2" fill="#2D3134" opacity=".39" rx=".6" ry=".4" transform="scale(-1) rotate(-50.856 -32.003 89.241)"/><ellipse cx="42.1" cy="15.5" fill="#2D3134" opacity=".39" rx=".6" ry=".4" transform="scale(-1) rotate(-50.856 -32.528 88.441)"/><path fill="#2D3134" d="M35.5 18.3l5-2.5V17l-5 2.5z"/><path fill="#F90" d="M6 5.5l-.5-.2v1.2l.5.3z"/><path fill="#39C" d="M17.3 10.3l9 4.5-4.6-5.4-4.4-2.2zM16.5 6.9l-2.2-1.1-4.5.7 6.7 3.4z"/><path d="M17.8 10.3V7.5l-.5-.3v3.1l9 4.5-.4-.5zM10.3 6.5l4.1-.7h-.1l-4.5.7 6.7 3.4v-.3z" opacity=".15"/><path d="M27.3 15L22 9l-8.3-4-5.4.5-2.8-.7v4l1.1.7c.4-1.2 1.8-1.6 3.3-.8 1.8.9 3.2 2.9 3.5 4.7l.2.1 7.8 4.1c.2-1.7 1.7-2.3 3.5-1.4 1.8.9 3.3 3 3.5 4.9l4 1.7v-4L27.3 15z" opacity=".06"/><path fill="#CC291F" d="M5.3 7.8l1 .5v1.5l-1-.5z"/><path d="M5.3 7.8l1 .5v1.5l-1-.5z" opacity=".39"/><path fill="#CC291F" d="M6.3 8.3v1.5l.2-.3V8l-1-.5-.2.3zM32.3 23l11.5-5.7v-1L32.3 22l-1-.5v1z"/><path d="M32.3 23l11.5-5.7v-1L32.3 22l-1-.5v1z" opacity=".39"/><path fill="#CC291F" d="M32.3 21.5l11-5.5.5.3L32.3 22l-1-.5.5-.2z"/><path fill="#FFF" d="M32.5 19.3l2 .7-2 1zM43 14v1.8l-1.5.7z" opacity=".39"/><path fill="#CC291F" d="M25.8 14.5l-1-1.4c-.2-.2-.4-.3-.7-.3l-1.2.1c-.2 0-.4.2-.4.4s.2.4.4.4l1.4.2 1.5.6z"/><path d="M25.8 14.5l-1-1.4c-.2-.2-.4-.3-.7-.3l-1.2.1c-.2 0-.4.2-.4.4s.2.4.4.4l1.4.2 1.5.6z" opacity=".39"/><path d="M29.7 11.9c0 .1.1.1.2.1l4.5-1.2c.1 0 .1-.1.1-.2s-.1-.1-.2-.1l-4.5 1.2c-.1 0-.1.1-.1.2zM27.2 13.2c0 .1.1.1.2.1l4.5-1.2c.1 0 .1-.1.1-.2s-.1-.1-.2-.1L27.3 13c-.1 0-.1.1-.1.2z"/><path d="M35.3 10.4c.1-.6 0-1.2-.4-1.5-.7-.5-1.8-.2-2.6.8-.7.8-.9 1.8-.5 2.4l.7-.3c-.3-.4-.2-1.2.3-1.8.6-.7 1.4-1 1.9-.6.3.2.3.7.1 1.2l.5-.2z" opacity=".5"/><path d="M37.3 10l-10 5L22 9l10-5zM43 13.5l-10.5 5.3v2.5L43 16.1z" opacity=".39"/></svg>