<svg xmlns="http://www.w3.org/2000/svg" enable-background="new 0 0 50 50" viewBox="0 0 50 50"><path fill="#4F4D4D" d="M46.3,21.8l0,6.5c0-3.2-2.1-6.3-6.3-8.7c-4.2-2.4-9.6-3.6-15-3.6c-5.4,0-10.9,1.2-15,3.6
			c-4.1,2.4-6.2,5.5-6.2,8.7l0-6.5c0-3.1,2.1-6.2,6.2-8.6c4.1-2.4,9.6-3.6,15-3.6s10.9,1.2,15,3.6C44.2,15.5,46.3,18.6,46.3,21.8z"/><path fill="#F1F1F1" d="M46.3,21.8l0,6.5c0,3.1-2.1,6.3-6.2,8.6c-8.3,4.8-21.7,4.8-30.1,0c-4.2-2.4-6.3-5.6-6.3-8.8l0-6.5
			c0,3.2,2.1,6.3,6.3,8.8c8.3,4.8,21.8,4.8,30.1,0C44.2,28.1,46.2,24.9,46.3,21.8z"/><path fill="#FFF" d="M40,15.3c8.3,4.8,8.4,12.6,0.1,17.4s-21.7,4.8-30.1,0c-8.3-4.8-8.4-12.6-0.1-17.4S31.7,10.5,40,15.3z"/><path fill="#4F4D4D" d="M12.5,22.6C12.5,22.6,12.5,22.6,12.5,22.6c0.1,0.1,0.1,0.1,0.1,0.2l0,0.1l-1.3,2.3c0,0.1-0.1,0.1-0.2,0.2
				c-0.1,0-0.2,0.1-0.3,0.1c-0.1,0-0.2,0-0.3-0.1c0,0,0,0-0.1,0c-0.1,0-0.1-0.1-0.1-0.1l-1-1.8l-0.9,1.8c0,0.1-0.1,0.1-0.2,0.2
				c-0.1,0-0.2,0.1-0.3,0.1c-0.1,0-0.2,0-0.3-0.1c0,0,0,0-0.1,0c-0.1,0-0.1-0.1-0.1-0.1l-1.3-2.3l0-0.1c0-0.1,0-0.1,0.1-0.2
				c0.1,0,0.2-0.1,0.3-0.1c0.1,0,0.2,0,0.3,0.1l0.1,0.1l1,1.9l1-1.9c0-0.1,0.1-0.1,0.2-0.1c0.1,0,0.2-0.1,0.3-0.1
				c0.1,0,0.2,0,0.3,0.1c0,0,0.1,0,0.1,0c0,0,0.1,0.1,0.1,0.1l1,1.9l1-1.9l0.1-0.1c0.1,0,0.2-0.1,0.3-0.1
				C12.3,22.6,12.4,22.6,12.5,22.6z"/><polygon fill="#D7D7D7" points="12.4 24 20.2 23.4 21.6 24.7"/><path fill="#4F4D4D" d="M26.6,32.3c0.1,0,0.1,0.1,0.1,0.2c0,0.1,0,0.1-0.1,0.2c-0.1,0-0.2,0.1-0.3,0.1l-0.1,0
				c-0.3-0.1-0.7-0.1-1-0.1c-0.3,0-0.6,0-0.8,0.1c-0.2,0.1-0.3,0.2-0.3,0.3c0,0.1,0,0.1,0.1,0.2c0.1,0,0.2,0.1,0.4,0.1
				c0.1,0,0.4,0.1,0.6,0.1c0.4,0.1,0.6,0.1,0.9,0.2c0.2,0,0.4,0.1,0.5,0.2c0,0,0.1,0,0.1,0c0.2,0.1,0.3,0.3,0.3,0.5
				c0,0.2-0.1,0.3-0.2,0.4c-0.1,0.1-0.4,0.2-0.6,0.3c-0.3,0.1-0.6,0.1-0.9,0.1c-0.6,0-1.1-0.1-1.6-0.2l-0.2-0.1l-0.1-0.1
				c0-0.1,0-0.1,0.1-0.2c0.1,0,0.2-0.1,0.3-0.1l0.2,0c0.4,0.1,0.8,0.2,1.3,0.2c1,0,1-0.3,1-0.4c0-0.1,0-0.1-0.1-0.1c0,0,0,0,0,0
				c-0.1,0-0.2-0.1-0.3-0.1c-0.1,0-0.4-0.1-0.6-0.1c-0.4-0.1-0.7-0.1-0.9-0.2c-0.2-0.1-0.4-0.1-0.6-0.2c0,0,0,0,0,0
				c-0.2-0.1-0.3-0.3-0.3-0.4c0-0.2,0.1-0.3,0.2-0.4c0.1-0.1,0.4-0.2,0.6-0.3c0.3-0.1,0.6-0.1,1-0.1c0.5,0,0.9,0,1.3,0.1
				C26.5,32.2,26.6,32.2,26.6,32.3z"/><polygon fill="#D7D7D7" points="28.4 23.3 37.7 24 29.8 24.6"/><path fill="#FFF" d="M26.8,23c0.5,0.3,0.7,0.6,0.7,1c0,0.8-1.1,1.5-2.5,1.4c-0.7,0-1.3-0.2-1.8-0.4c-0.5-0.3-0.7-0.6-0.7-1
					c0-0.8,1.1-1.4,2.5-1.4C25.7,22.5,26.3,22.7,26.8,23z"/><polygon fill="#D7D7D7" points="22.2 25.2 22.5 25.4 23 25.6 17.4 28.4"/><path fill="#DD454D" d="M27.5,22.5l0.3,0.3l0.6,0.5l1.4,1.3l7.3,6.4L26,26.8l-2.2-0.8L23,25.6l-0.5-0.2l0.7-0.4
					c0.5,0.3,1.1,0.4,1.8,0.4c1.4,0,2.5-0.6,2.5-1.4c0-0.4-0.3-0.8-0.7-1L27.5,22.5z"/><polygon fill="#D7D7D7" points="26 26.8 25.1 31.3 23.8 25.9"/><polygon fill="#D7D7D7" points="27.8 22.8 27.5 22.5 27 22.4 32.7 19.5"/><path fill="#4F4D4D" d="M26.9,13.1c0.1,0,0.1,0.1,0.1,0.2l0,2.3c0,0.1-0.1,0.2-0.2,0.2c-0.1,0.1-0.2,0.1-0.4,0.1l-0.1,0l-0.3,0
				L26,15.7l-2.4-2l0,1.9c0,0.1,0,0.1-0.1,0.2c-0.1,0-0.2,0.1-0.3,0.1c-0.1,0-0.2,0-0.3-0.1c0,0,0,0,0,0c-0.1,0-0.1-0.1-0.1-0.2
				l0-2.3c0-0.1,0.1-0.2,0.2-0.2c0.1-0.1,0.2-0.1,0.4-0.1l0.1,0c0.1,0,0.3,0,0.4,0.1c0,0,0,0,0.1,0l2.4,2l0-1.9c0-0.1,0-0.1,0.1-0.2
				c0.1,0,0.2-0.1,0.3-0.1C26.8,13,26.9,13.1,26.9,13.1z"/><path fill="#14A0DB" d="M27.5,22.5L26.8,23c-0.5-0.3-1.1-0.4-1.8-0.4c-1.4,0-2.5,0.7-2.5,1.4c0,0.4,0.3,0.8,0.7,1l-0.7,0.4
				l-0.3-0.3l-0.6-0.5l-1.4-1.3L12.9,17L24,21.2l2.2,0.8l0.9,0.3L27.5,22.5z"/><polygon fill="#D7D7D7" points="24 21.2 25 16.7 26.2 22"/><path fill="#4F4D4D" d="M43.8,22.6C43.8,22.6,43.8,22.7,43.8,22.6c0.1,0.1,0.1,0.1,0.1,0.2c0,0.1,0,0.1-0.1,0.2
				c-0.1,0-0.2,0.1-0.3,0.1l-2.2,0l0,0.7l2,0c0.1,0,0.2,0,0.3,0.1c0.1,0,0.1,0.1,0.1,0.2c0,0.1,0,0.1-0.1,0.2
				c-0.1,0-0.2,0.1-0.3,0.1l-2,0l0,0.7l2.2,0c0.1,0,0.2,0,0.3,0.1c0.1,0,0.1,0.1,0.1,0.2c0,0.1,0,0.1-0.1,0.2
				c-0.1,0-0.2,0.1-0.3,0.1l-2.6,0c-0.1,0-0.2,0-0.3-0.1c-0.1,0-0.1-0.1-0.1-0.2l0-2.3c0-0.1,0-0.1,0.1-0.2c0.1,0,0.2-0.1,0.3-0.1
				l2.6,0C43.6,22.6,43.7,22.6,43.8,22.6z"/><g><path fill="#4F4D4D" d="M49,21.8l0,6.5c0,3.5-2.3,7.1-7,9.8c-9.3,5.4-24.5,5.4-33.9,0C3.3,35.4,1,31.8,1,28.2l0-6.5
			c0,3.6,2.4,7.2,7.1,9.9c9.4,5.4,24.6,5.4,33.9,0C46.7,28.9,49,25.3,49,21.8z"/></g><g><path fill="#BFBFBF" d="M41.9,11.9c9.4,5.4,9.5,14.2,0.1,19.7c-9.3,5.4-24.5,5.4-33.9,0S-1.4,17.3,8,11.9
			C17.3,6.5,32.5,6.5,41.9,11.9z M10,30.4c8.3,4.8,21.8,4.8,30.1,0c8.3-4.8,8.2-12.6-0.1-17.4s-21.8-4.8-30,0
			C1.7,17.8,1.7,25.6,10,30.4"/></g></svg>