<svg width="24" height="24" viewBox="0 0 24 24" fill="none" xmlns="http://www.w3.org/2000/svg">
<path d="M12 15.0008C13.6569 15.0008 15 13.6577 15 12.001C15 10.3443 13.6569 9.00125 12 9.00125C10.3431 9.00125 9 10.3443 9 12.001C9 13.6577 10.3431 15.0008 12 15.0008Z" fill="#1572EC"/>
<path d="M22 11.0011H19.931C19.7068 9.24134 18.9045 7.60587 17.65 6.35148C16.3955 5.0971 14.7599 4.29483 13 4.07066V2.00183H11V4.07066C9.24017 4.295 7.60466 5.09731 6.3502 6.35167C5.09574 7.60602 4.29335 9.2414 4.069 11.0011H2V13.0009H4.069C4.29335 14.7606 5.09574 16.396 6.3502 17.6503C7.60466 18.9047 9.24017 19.707 11 19.9313V22.0002H13V19.9313C14.7598 19.707 16.3953 18.9047 17.6498 17.6503C18.9043 16.396 19.7066 14.7606 19.931 13.0009H22V11.0011V11.0011ZM12 18.0005C8.691 18.0005 6 15.3087 6 12.001C6 8.69328 8.691 6.0015 12 6.0015C15.309 6.0015 18 8.69328 18 12.001C18 15.3087 15.309 18.0005 12 18.0005Z" fill="#1572EC"/>
</svg>
