<svg xmlns="http://www.w3.org/2000/svg" version="1.1" xmlns:xlink="http://www.w3.org/1999/xlink" xmlns:svgjs="http://svgjs.com/svgjs" width="375" height="812" preserveAspectRatio="none" viewBox="0 0 375 812"><g mask="url(&quot;#SvgjsMask1025&quot;)" fill="none"><rect width="375" height="812" x="0" y="0" fill="#0e2a47"></rect><path d="M141 302L17 426" stroke-width="10" stroke="url(#SvgjsLinearGradient1026)" stroke-linecap="round" class="BottomLeft"></path><path d="M57 738L-173 968" stroke-width="8" stroke="url(#SvgjsLinearGradient1026)" stroke-linecap="round" class="BottomLeft"></path><path d="M372 779L191 960" stroke-width="10" stroke="url(#SvgjsLinearGradient1026)" stroke-linecap="round" class="BottomLeft"></path><path d="M14 95L178 -69" stroke-width="6" stroke="url(#SvgjsLinearGradient1027)" stroke-linecap="round" class="TopRight"></path><path d="M81 7L201 -113" stroke-width="8" stroke="url(#SvgjsLinearGradient1026)" stroke-linecap="round" class="BottomLeft"></path><path d="M127 647L-94 868" stroke-width="10" stroke="url(#SvgjsLinearGradient1026)" stroke-linecap="round" class="BottomLeft"></path><path d="M289 683L478 494" stroke-width="10" stroke="url(#SvgjsLinearGradient1026)" stroke-linecap="round" class="BottomLeft"></path><path d="M240 221L508 -47" stroke-width="8" stroke="url(#SvgjsLinearGradient1026)" stroke-linecap="round" class="BottomLeft"></path><path d="M345 315L212 448" stroke-width="6" stroke="url(#SvgjsLinearGradient1027)" stroke-linecap="round" class="TopRight"></path><path d="M328 397L590 135" stroke-width="8" stroke="url(#SvgjsLinearGradient1026)" stroke-linecap="round" class="BottomLeft"></path><path d="M292 554L508 338" stroke-width="10" stroke="url(#SvgjsLinearGradient1027)" stroke-linecap="round" class="TopRight"></path><path d="M69 269L-106 444" stroke-width="10" stroke="url(#SvgjsLinearGradient1026)" stroke-linecap="round" class="BottomLeft"></path><path d="M232 321L332 221" stroke-width="10" stroke="url(#SvgjsLinearGradient1026)" stroke-linecap="round" class="BottomLeft"></path><path d="M281 381L59 603" stroke-width="6" stroke="url(#SvgjsLinearGradient1027)" stroke-linecap="round" class="TopRight"></path><path d="M127 276L-94 497" stroke-width="10" stroke="url(#SvgjsLinearGradient1026)" stroke-linecap="round" class="BottomLeft"></path><path d="M37 49L-76 162" stroke-width="10" stroke="url(#SvgjsLinearGradient1027)" stroke-linecap="round" class="TopRight"></path><path d="M247 324L98 473" stroke-width="8" stroke="url(#SvgjsLinearGradient1026)" stroke-linecap="round" class="BottomLeft"></path><path d="M287 755L564 478" stroke-width="10" stroke="url(#SvgjsLinearGradient1026)" stroke-linecap="round" class="BottomLeft"></path><path d="M99 294L0 393" stroke-width="8" stroke="url(#SvgjsLinearGradient1026)" stroke-linecap="round" class="BottomLeft"></path><path d="M251 702L28 925" stroke-width="10" stroke="url(#SvgjsLinearGradient1027)" stroke-linecap="round" class="TopRight"></path><path d="M13 168L-139 320" stroke-width="10" stroke="url(#SvgjsLinearGradient1027)" stroke-linecap="round" class="TopRight"></path><path d="M121 425L-138 684" stroke-width="6" stroke="url(#SvgjsLinearGradient1026)" stroke-linecap="round" class="BottomLeft"></path><path d="M258 388L66 580" stroke-width="10" stroke="url(#SvgjsLinearGradient1027)" stroke-linecap="round" class="TopRight"></path></g><defs><mask id="SvgjsMask1025"><rect width="375" height="812" fill="#ffffff"></rect></mask><linearGradient x1="100%" y1="0%" x2="0%" y2="100%" id="SvgjsLinearGradient1026"><stop stop-color="rgba(28, 83, 142, 0)" offset="0"></stop><stop stop-color="#1c538e" offset="1"></stop></linearGradient><linearGradient x1="0%" y1="100%" x2="100%" y2="0%" id="SvgjsLinearGradient1027"><stop stop-color="rgba(28, 83, 142, 0)" offset="0"></stop><stop stop-color="#1c538e" offset="1"></stop></linearGradient></defs></svg>