<svg width="48" height="48" viewBox="0 0 48 48" fill="none" xmlns="http://www.w3.org/2000/svg">
<path d="M23.9999 46C25.0608 46 26.0782 45.5786 26.8284 44.8284C27.5785 44.0783 27.9999 43.0609 27.9999 42H19.9999C19.9999 43.0609 20.4214 44.0783 21.1715 44.8284C21.9217 45.5786 22.9391 46 23.9999 46ZM7.99994 38H39.9999C40.3954 37.9999 40.782 37.8826 41.1109 37.6628C41.4397 37.443 41.696 37.1307 41.8473 36.7653C41.9986 36.3999 42.0382 35.9978 41.9611 35.6099C41.884 35.222 41.6936 34.8657 41.4139 34.586L37.9999 31.172V20C37.9935 16.637 36.7778 13.3885 34.5747 10.8476C32.3716 8.30668 29.3281 6.64289 25.9999 6.16V4C25.9999 3.46957 25.7892 2.96086 25.4142 2.58579C25.0391 2.21071 24.5304 2 23.9999 2C23.4695 2 22.9608 2.21071 22.5857 2.58579C22.2107 2.96086 21.9999 3.46957 21.9999 4V6.16C18.6718 6.64289 15.6283 8.30668 13.4252 10.8476C11.2221 13.3885 10.0064 16.637 9.99994 20V31.172L6.58594 34.586C6.30632 34.8657 6.11591 35.222 6.03877 35.6099C5.96164 35.9978 6.00124 36.3999 6.15258 36.7653C6.30392 37.1307 6.5602 37.443 6.88902 37.6628C7.21784 37.8826 7.60444 37.9999 7.99994 38ZM13.4139 33.414C13.789 33.039 13.9998 32.5304 13.9999 32V20C13.9999 17.3478 15.0535 14.8043 16.9289 12.9289C18.8042 11.0536 21.3478 10 23.9999 10C26.6521 10 29.1956 11.0536 31.071 12.9289C32.9464 14.8043 33.9999 17.3478 33.9999 20V32C34.0001 32.5304 34.2108 33.039 34.5859 33.414L35.1719 34H12.8279L13.4139 33.414Z" fill="white"/>
<circle cx="36" cy="16" r="8" fill="#EE4637"/>
</svg>
