<svg xmlns="http://www.w3.org/2000/svg" width="36" height="36" viewBox="0 0 36 36"><g transform="translate(2 -1018.925)"><path fill="#25b39e" style="isolation:auto;mix-blend-mode:normal" d="m 14.99682,1028.3621 -9.74365,0 -1.25,2.5 1.25,2.5 9.74365,0 z" color="#000" overflow="visible"/><path fill="none" stroke="#60c5b8" d="m 12.00035,1030.8621 -6.00035,0"/><rect width="2" height="26" x="14.997" y="1022.925" fill="#34485c" color="#000" overflow="visible" style="isolation:auto;mix-blend-mode:normal"/><rect style="isolation:auto;mix-blend-mode:normal" width="8.003" height="2" x="11.994" y="1048.362" fill="#2b4255" color="#000" overflow="visible" rx="1" ry="1"/><path fill="#f05542" d="m 16.99682,1025.3621 9.74924,0 1.25076,2.5 -1.25076,2.5 -9.74924,0 z" color="#000" overflow="visible" style="isolation:auto;mix-blend-mode:normal"/><path fill="none" stroke="#f17f53" d="m 18.99682,1027.8621 6,0"/><path fill="#e9eded" style="line-height:normal;text-indent:0;text-align:start;text-decoration-line:none;text-decoration-style:solid;text-decoration-color:#000;text-transform:none;block-progression:tb;isolation:auto;mix-blend-mode:normal" d="m 14.996094,1.5625 a 1.0001,1.0001 0 0 0 -1,1 l 0,4.4375 -8.7421878,0 A 1.0001,1.0001 0 0 0 4.359375,7.5527344 l -1.25,2.4999996 a 1.0001,1.0001 0 0 0 0,0.894532 l 1.25,2.5 A 1.0001,1.0001 0 0 0 5.2539062,14 l 8.7421878,0 0,13 -1.001953,0 c -1.090698,0 -2,0.9093 -2,2 0,1.0907 0.909302,2 2,2 l 6.001953,0 c 1.090697,0 2,-0.9093 2,-2 0,-1.0907 -0.909303,-2 -2,-2 l -1,0 0,-16 8.75,0 a 1.0001,1.0001 0 0 0 0.894531,-0.552734 l 1.25,-2.5000004 a 1.0001,1.0001 0 0 0 0,-0.8945312 l -1.25,-2.5 A 1.0001,1.0001 0 0 0 26.746094,4 l -8.75,0 0,-1.4375 a 1.0001,1.0001 0 0 0 -1,-1 l -2,0 z m 0,1 2,0 0,2.4375 9.75,0 1.25,2.5 -1.25,2.5 -9.75,0 0,18 2,0 c 0.554005,0 1,0.445995 1,1 0,0.554005 -0.445995,1 -1,1 l -6.001953,0 c -0.554005,0 -1,-0.445995 -1,-1 0,-0.554005 0.445995,-1 1,-1 l 2.001953,0 0,-15 -9.7421878,0 -1.25,-2.5 1.25,-2.5 9.7421878,0 0,-5.4375 z" color="#000" font-family="sans-serif" font-weight="400" overflow="visible" transform="translate(0 1020.362)"/></g></svg>